<svg width="500" height="500" viewBox="0 0 500 500" fill="none" xmlns="http://www.w3.org/2000/svg">
<path d="M302.083 114.583L385.417 197.917M62.5 437.5H145.833L416.667 166.667C427.717 155.616 433.926 140.628 433.926 125C433.926 109.372 427.717 94.384 416.667 83.3334C405.616 72.2827 390.628 66.0745 375 66.0745C359.372 66.0745 344.384 72.2827 333.333 83.3334L62.5 354.167V437.5Z" stroke="#545454" stroke-width="30" stroke-linecap="round" stroke-linejoin="round"/>
<path d="M250 166.667L145.833 62.5L62.5 145.833L166.667 250M145.833 166.667L114.583 197.917M333.333 250L437.5 354.167L354.167 437.5L250 333.333M333.333 354.167L302.083 385.417" stroke="#545454" stroke-width="30" stroke-linecap="round" stroke-linejoin="round"/>
</svg>
