<svg width="500" height="500" viewBox="0 0 500 500" fill="none" xmlns="http://www.w3.org/2000/svg">
<path d="M218.75 62.5H93.75C76.4911 62.5 62.5 76.4911 62.5 93.75V322.917C62.5 340.176 76.4911 354.167 93.75 354.167H406.25C423.509 354.167 437.5 340.176 437.5 322.917V218.75" stroke="#545454" stroke-width="41.6667" stroke-linecap="round" stroke-linejoin="round"/>
<path d="M250 354.167V437.5" stroke="#545454" stroke-width="41.6667" stroke-linecap="round" stroke-linejoin="round"/>
<path d="M145.833 437.5H354.167" stroke="#545454" stroke-width="41.6667" stroke-linecap="round" stroke-linejoin="round"/>
<path d="M370.79 70.9V112.37C370.79 120.95 369.837 127.667 367.93 132.52C366.11 137.287 362.643 140.797 357.53 143.05C352.417 145.303 344.963 146.43 335.17 146.43C327.977 146.43 321.91 145.693 316.97 144.22C312.03 142.66 308.087 139.757 305.14 135.51C302.28 131.263 300.85 125.283 300.85 117.57V70.9H324.25V112.63C324.25 117.223 324.467 120.733 324.9 123.16C325.42 125.5 326.547 127.32 328.28 128.62C330.013 129.833 332.657 130.44 336.21 130.44C338.377 130.44 340.413 130.223 342.32 129.79C344.227 129.357 345.527 128.707 346.22 127.84C347 126.8 347.39 123.03 347.39 116.53V70.9H370.79ZM383.261 70.9H406.661V145H383.261V70.9Z" fill="#545454"/>
</svg>
