<svg width="500" height="500" viewBox="0 0 500 500" fill="none" xmlns="http://www.w3.org/2000/svg">
<path fill-rule="evenodd" clip-rule="evenodd" d="M227.487 76.9977C227.487 68.4529 235.941 59 249.701 59C263.46 59 271.915 68.4529 271.915 76.9977C271.915 85.5426 263.46 94.9954 249.701 94.9954C235.941 94.9954 227.487 85.5426 227.487 76.9977ZM249.701 36C226.221 36 204.487 52.9603 204.487 76.9977C204.487 90.6187 211.466 101.967 221.787 109.245C199.44 119.742 183.967 142.452 183.967 168.775V174.877C183.967 184.93 192.117 193.081 202.171 193.081H297.233C307.287 193.081 315.437 184.93 315.437 174.877V168.775C315.437 164.87 315.097 161.044 314.444 157.325H385.592C394.59 157.325 401.884 164.62 401.884 173.618V204.048H364.002C347.846 204.048 334.531 216.21 332.713 231.878H327.929C326.111 216.21 312.796 204.048 296.64 204.048H202.762C186.606 204.048 173.291 216.21 171.474 231.878H166.689C164.872 216.21 151.556 204.048 135.401 204.048H42.5C25.103 204.048 11 218.151 11 235.548V258.119C11 275.516 25.103 289.619 42.5 289.619H135.401C152.798 289.619 166.901 275.516 166.901 258.119V254.878H171.262V258.119C171.262 275.515 185.365 289.619 202.762 289.619H236.509V291.647H202.762C185.365 291.647 171.262 305.75 171.262 323.147V346.612C171.262 364.008 185.365 378.112 202.762 378.112H242.371V380.14H203.738C186.341 380.14 172.238 394.243 172.238 411.64V433.317C172.238 450.714 186.341 464.817 203.738 464.817H296.639C314.036 464.817 328.139 450.714 328.139 433.317V411.64C328.139 394.243 314.036 380.14 296.639 380.14H265.371V378.112H296.64C314.037 378.112 328.14 364.009 328.14 346.612V323.147C328.14 305.75 314.037 291.647 296.64 291.647H259.509V289.619H296.64C314.037 289.619 328.14 275.516 328.14 258.119V254.878H332.502V258.119C332.502 275.516 346.605 289.619 364.002 289.619H456.903C474.299 289.619 488.403 275.516 488.403 258.119V235.548C488.403 218.151 474.299 204.048 456.903 204.048H424.884V173.618C424.884 151.917 407.292 134.325 385.592 134.325H305.698C299.004 123.468 289.24 114.704 277.616 109.244C287.936 101.966 294.915 90.6182 294.915 76.9977C294.915 52.9603 273.181 36 249.701 36ZM206.967 168.775C206.967 145.173 226.1 126.04 249.702 126.04C273.304 126.04 292.437 145.173 292.437 168.775V170.081H206.967V168.775ZM34 235.548C34 230.853 37.8056 227.048 42.5 227.048H135.401C140.095 227.048 143.901 230.853 143.901 235.548V258.119C143.901 262.813 140.095 266.619 135.401 266.619H42.5C37.8056 266.619 34 262.813 34 258.119V235.548ZM202.762 227.048C198.068 227.048 194.262 230.853 194.262 235.548V258.119C194.262 262.813 198.068 266.619 202.762 266.619H296.64C301.334 266.619 305.14 262.813 305.14 258.119V235.548C305.14 230.853 301.334 227.048 296.64 227.048H202.762ZM194.262 323.147C194.262 318.452 198.068 314.647 202.762 314.647H296.64C301.334 314.647 305.14 318.452 305.14 323.147V346.612C305.14 351.306 301.334 355.112 296.64 355.112H202.762C198.068 355.112 194.262 351.306 194.262 346.612V323.147ZM203.738 403.14C199.044 403.14 195.238 406.945 195.238 411.64V433.317C195.238 438.011 199.044 441.817 203.738 441.817H296.639C301.333 441.817 305.139 438.011 305.139 433.317V411.64C305.139 406.945 301.333 403.14 296.639 403.14H203.738ZM355.502 235.548C355.502 230.853 359.307 227.048 364.002 227.048H456.903C461.597 227.048 465.403 230.853 465.403 235.548V258.119C465.403 262.813 461.597 266.619 456.903 266.619H364.002C359.307 266.619 355.502 262.813 355.502 258.119V235.548Z" fill="#545454"/>
</svg>
