<svg width="500" height="500" viewBox="0 0 500 500" fill="none" xmlns="http://www.w3.org/2000/svg">
<path fill-rule="evenodd" clip-rule="evenodd" d="M8 70C8 57.8498 17.8497 48 30 48H469.959C482.109 48 491.959 57.8497 491.959 70V429.194C491.959 441.344 482.109 451.194 469.959 451.194H30C17.8497 451.194 8 441.344 8 429.194V70ZM38 78V120.997H461.959V78H38ZM38 421.194V150.997H461.959V421.194H38ZM65.942 109.649C72.1534 109.649 77.1888 104.428 77.1888 97.987C77.1888 91.5461 72.1534 86.3247 65.942 86.3247C59.7307 86.3247 54.6953 91.5461 54.6953 97.987C54.6953 104.428 59.7307 109.649 65.942 109.649ZM108.884 97.987C108.884 104.428 103.849 109.649 97.6374 109.649C91.426 109.649 86.3906 104.428 86.3906 97.987C86.3906 91.5461 91.426 86.3247 97.6374 86.3247C103.849 86.3247 108.884 91.5461 108.884 97.987ZM129.333 109.649C135.544 109.649 140.579 104.428 140.579 97.987C140.579 91.5461 135.544 86.3247 129.333 86.3247C123.121 86.3247 118.086 91.5461 118.086 97.987C118.086 104.428 123.121 109.649 129.333 109.649ZM257.928 179.503C257.928 171.495 264.42 165.003 272.428 165.003H425.882C433.89 165.003 440.382 171.495 440.382 179.503V314.39C440.382 322.398 433.89 328.89 425.882 328.89H272.428C264.42 328.89 257.928 322.398 257.928 314.39V192.587L257.299 192.07L257.928 191.246V179.503ZM282.928 288.628V213.117L328.903 250.872L282.928 288.628ZM303.711 303.89L348.587 267.037L393.464 303.89H303.711ZM368.271 250.872L415.382 289.56V212.184L368.271 250.872ZM294.149 190.003L348.587 234.708L403.025 190.003H294.149ZM415.189 190.003L415.382 190.255V190.003H415.189ZM72.0767 345.798C64.897 345.798 59.0767 351.619 59.0767 358.798C59.0767 365.978 64.897 371.798 72.0767 371.798H429.927C437.107 371.798 442.927 365.978 442.927 358.798C442.927 351.619 437.107 345.798 429.927 345.798H72.0767ZM59.0767 396.966C59.0767 389.786 64.897 383.966 72.0767 383.966H429.927C437.107 383.966 442.927 389.786 442.927 396.966C442.927 404.146 437.107 409.966 429.927 409.966H72.0767C64.897 409.966 59.0767 404.146 59.0767 396.966ZM112.637 244.296C112.637 222.786 129.318 206.285 148.759 206.285C168.2 206.285 184.88 222.786 184.88 244.296C184.88 265.806 168.2 282.306 148.759 282.306C129.318 282.306 112.637 265.806 112.637 244.296ZM148.759 176.285C111.733 176.285 82.6373 207.252 82.6373 244.296C82.6373 281.339 111.733 312.306 148.759 312.306C185.785 312.306 214.88 281.339 214.88 244.296C214.88 207.252 185.785 176.285 148.759 176.285ZM72.8272 225.494C75.0137 227.602 75.0769 231.084 72.9683 233.271L58.7576 248.007L72.9683 262.742C75.0769 264.929 75.0137 268.411 72.8272 270.519C70.6407 272.628 67.1589 272.565 65.0503 270.378L47.8272 252.519C45.399 250.001 45.399 246.012 47.8272 243.494L65.0503 225.635C67.1589 223.448 70.6407 223.385 72.8272 225.494ZM221.482 235.391C219.373 233.205 219.437 229.723 221.623 227.614C223.81 225.506 227.291 225.569 229.4 227.755L246.623 245.615C249.051 248.133 249.051 252.121 246.623 254.639L229.4 272.498C227.291 274.685 223.81 274.748 221.623 272.64C219.437 270.531 219.373 267.049 221.482 264.863L235.693 250.127L221.482 235.391Z" fill="#545454"/>
</svg>
